<?xml version="1.0" encoding="utf-8"?>
<!-- Svg Vector Icons : http://www.onlinewebfonts.com/icon -->
<!DOCTYPE svg PUBLIC "-//W3C//DTD SVG 1.1//EN" "http://www.w3.org/Graphics/SVG/1.1/DTD/svg11.dtd">
<svg version="1.1" xmlns="http://www.w3.org/2000/svg" xmlns:xlink="http://www.w3.org/1999/xlink" x="0px" y="0px" viewBox="0 0 1000 1000" enable-background="new 0 0 1000 1000" xml:space="preserve">
<metadata> Svg Vector Icons : http://www.onlinewebfonts.com/icon </metadata>
<g><g><g><path d="M500,10C229.4,10,10,229.4,10,500c0,270.6,219.4,490,490,490c270.6,0,490-219.4,490-490C990,229.4,770.6,10,500,10z M500,913.4C271.7,913.4,86.6,728.3,86.6,500S271.7,86.6,500,86.6S913.4,271.7,913.4,500S728.3,913.4,500,913.4z"/><path d="M316.3,591.9c-16.9,0-30.6,13.7-30.6,30.6s13.7,30.6,30.6,30.6s30.6-13.7,30.6-30.6S333.2,591.9,316.3,591.9z"/><path d="M316.3,469.4c-16.9,0-30.6,13.7-30.6,30.6s13.7,30.6,30.6,30.6s30.6-13.7,30.6-30.6S333.2,469.4,316.3,469.4z"/><path d="M316.3,346.9c-16.9,0-30.6,13.7-30.6,30.6s13.7,30.6,30.6,30.6s30.6-13.7,30.6-30.6S333.2,346.9,316.3,346.9z"/><path d="M714.4,362.2c0-8.5-6.8-15.3-15.3-15.3H423.4c-8.5,0-15.3,6.8-15.3,15.3v30.6c0,8.5,6.8,15.3,15.3,15.3h275.6c8.5,0,15.3-6.8,15.3-15.3V362.2z"/><path d="M714.4,484.7c0-8.5-6.8-15.3-15.3-15.3H423.4c-8.5,0-15.3,6.8-15.3,15.3v30.6c0,8.5,6.8,15.3,15.3,15.3h275.6c8.5,0,15.3-6.8,15.3-15.3V484.7z"/><path d="M714.4,607.2c0-8.5-6.8-15.3-15.3-15.3H423.4c-8.5,0-15.3,6.8-15.3,15.3v30.6c0,8.5,6.8,15.3,15.3,15.3h275.6c8.5,0,15.3-6.8,15.3-15.3V607.2z"/></g></g><g></g><g></g><g></g><g></g><g></g><g></g><g></g><g></g><g></g><g></g><g></g><g></g><g></g><g></g><g></g></g>
</svg>